<svg width="51" height="51" viewBox="0 0 51 51" fill="none" xmlns="http://www.w3.org/2000/svg">
<circle cx="25.5" cy="25.5" r="25.5" fill="#C4C4C4"/>
<g opacity="0.5">
<path d="M25 9.4165L12.25 15.0832V23.5832C12.25 31.4457 17.69 38.7982 25 40.5832C32.31 38.7982 37.75 31.4457 37.75 23.5832V15.0832L25 9.4165ZM25 14.9415C25.8406 14.9415 26.6623 15.1908 27.3612 15.6578C28.0601 16.1248 28.6048 16.7885 28.9265 17.5651C29.2482 18.3417 29.3323 19.1962 29.1683 20.0206C29.0044 20.8451 28.5996 21.6023 28.0052 22.1967C27.4108 22.7911 26.6536 23.1959 25.8291 23.3598C25.0047 23.5238 24.1502 23.4397 23.3736 23.118C22.597 22.7963 21.9333 22.2516 21.4663 21.5527C20.9993 20.8538 20.75 20.0321 20.75 19.1915C20.75 18.0643 21.1978 16.9833 21.9948 16.1863C22.7918 15.3893 23.8728 14.9415 25 14.9415ZM25 26.1332C27.8333 26.1332 33.5 27.6773 33.5 30.4965C32.5696 31.8992 31.3065 33.0498 29.8234 33.8457C28.3402 34.6417 26.6832 35.0582 25 35.0582C23.3168 35.0582 21.6598 34.6417 20.1766 33.8457C18.6935 33.0498 17.4304 31.8992 16.5 30.4965C16.5 27.6773 22.1667 26.1332 25 26.1332Z" fill="black"/>
</g>
</svg>
