<svg width="41" height="30" viewBox="0 0 41 30" fill="none" xmlns="http://www.w3.org/2000/svg">
<path opacity="0.35" d="M10.0833 29.15C7.30278 29.15 4.92678 28.1875 2.95533 26.2625C0.98389 24.3375 -0.00122109 21.9847 1.13589e-06 19.2042C1.13589e-06 16.8208 0.718057 14.6972 2.15417 12.8333C3.59028 10.9694 5.46945 9.77778 7.79167 9.25833C8.31111 7.05833 9.60972 4.96528 11.6875 2.97917C13.7653 0.993055 15.9806 0 18.3333 0C19.3417 0 20.2052 0.359334 20.9238 1.078C21.6425 1.79667 22.0012 2.65956 22 3.66667V14.7583L24.9333 11.9167L27.5 14.4833L20.1667 21.8167L12.8333 14.4833L15.4 11.9167L18.3333 14.7583V3.66667C16.0111 4.09444 14.2083 5.21767 12.925 7.03633C11.6417 8.855 11 10.7262 11 12.65H10.0833C8.31111 12.65 6.79861 13.2764 5.54584 14.5292C4.29306 15.7819 3.66667 17.2944 3.66667 19.0667C3.66667 20.8389 4.29306 22.3514 5.54584 23.6042C6.79861 24.8569 8.31111 25.4833 10.0833 25.4833H32.0833C33.3667 25.4833 34.4514 25.0403 35.3375 24.1542C36.2236 23.2681 36.6667 22.1833 36.6667 20.9C36.6667 19.6167 36.2236 18.5319 35.3375 17.6458C34.4514 16.7597 33.3667 16.3167 32.0833 16.3167H29.3333V12.65C29.3333 11.1833 28.9972 9.81567 28.325 8.547C27.6528 7.27833 26.7667 6.20156 25.6667 5.31667V1.05417C27.9278 2.12361 29.7153 3.70517 31.0292 5.79883C32.3431 7.8925 33 10.1762 33 12.65C35.1083 12.8944 36.8579 13.8038 38.2488 15.378C39.6397 16.9522 40.3346 18.7929 40.3333 20.9C40.3333 23.1917 39.5309 25.1399 37.9262 26.7447C36.3214 28.3494 34.3738 29.1512 32.0833 29.15H10.0833Z" fill="black"/>
</svg>
