<svg width="30" height="30" viewBox="0 0 30 30" fill="none" xmlns="http://www.w3.org/2000/svg">
<path d="M9.0105 25.9063C8.35165 25.9063 7.78743 25.6715 7.31785 25.2019C6.84826 24.7323 6.61387 24.1685 6.61467 23.5104V7.9375C6.27526 7.9375 5.99055 7.8225 5.76055 7.5925C5.53055 7.3625 5.41595 7.0782 5.41675 6.73959C5.41675 6.40018 5.53175 6.11547 5.76175 5.88547C5.99175 5.65547 6.27606 5.54087 6.61467 5.54167H11.4063C11.4063 5.20226 11.5213 4.91756 11.7513 4.68756C11.9813 4.45756 12.2656 4.34296 12.6043 4.34375H17.3959C17.7353 4.34375 18.02 4.45875 18.25 4.68875C18.48 4.91875 18.5946 5.20306 18.5938 5.54167H23.3855C23.7249 5.54167 24.0096 5.65667 24.2396 5.88667C24.4696 6.11667 24.5842 6.40098 24.5834 6.73959C24.5834 7.079 24.4684 7.3637 24.2384 7.5937C24.0084 7.8237 23.7241 7.9383 23.3855 7.9375V23.5104C23.3855 24.1693 23.1507 24.7335 22.6811 25.2031C22.2115 25.6727 21.6477 25.9071 20.9897 25.9063H9.0105ZM9.0105 7.9375V23.5104H20.9897V7.9375H9.0105ZM11.4063 19.9167C11.4063 20.2561 11.5213 20.5408 11.7513 20.7708C11.9813 21.0008 12.2656 21.1154 12.6043 21.1146C12.9437 21.1146 13.2284 20.9996 13.4584 20.7696C13.6884 20.5396 13.803 20.2553 13.8022 19.9167V11.5313C13.8022 11.1918 13.6872 10.9071 13.4572 10.6771C13.2272 10.4471 12.9429 10.3325 12.6043 10.3333C12.2648 10.3333 11.9801 10.4483 11.7501 10.6783C11.5201 10.9083 11.4055 11.1926 11.4063 11.5313V19.9167ZM16.198 19.9167C16.198 20.2561 16.313 20.5408 16.543 20.7708C16.773 21.0008 17.0573 21.1154 17.3959 21.1146C17.7353 21.1146 18.02 20.9996 18.25 20.7696C18.48 20.5396 18.5946 20.2553 18.5938 19.9167V11.5313C18.5938 11.1918 18.4788 10.9071 18.2488 10.6771C18.0188 10.4471 17.7345 10.3325 17.3959 10.3333C17.0565 10.3333 16.7718 10.4483 16.5418 10.6783C16.3118 10.9083 16.1972 11.1926 16.198 11.5313V19.9167Z" fill="#2558B8"/>
</svg>
