<svg width="20" height="22" viewBox="0 0 20 22" fill="none" xmlns="http://www.w3.org/2000/svg">
<path d="M4.26427 21.5507C3.63431 21.5507 3.09483 21.3262 2.64584 20.8772C2.19686 20.4282 1.97274 19.8891 1.97351 19.2599V4.36998C1.64898 4.36998 1.37677 4.26002 1.15685 4.04011C0.93694 3.8202 0.827365 3.54836 0.828129 3.2246C0.828129 2.90008 0.938085 2.62786 1.158 2.40794C1.37791 2.18803 1.64975 2.07846 1.97351 2.07922H6.55502C6.55502 1.7547 6.66498 1.48248 6.88489 1.26257C7.1048 1.04265 7.37664 0.933078 7.7004 0.933842H12.2819C12.6064 0.933842 12.8787 1.0438 13.0986 1.26371C13.3185 1.48362 13.4281 1.75546 13.4273 2.07922H18.0088C18.3333 2.07922 18.6056 2.18918 18.8255 2.40909C19.0454 2.629 19.155 2.90084 19.1542 3.2246C19.1542 3.54912 19.0442 3.82134 18.8243 4.04125C18.6044 4.26117 18.3326 4.37074 18.0088 4.36998V19.2599C18.0088 19.8899 17.7843 20.4293 17.3353 20.8783C16.8863 21.3273 16.3472 21.5514 15.7181 21.5507H4.26427ZM4.26427 4.36998V19.2599H15.7181V4.36998H4.26427ZM6.55502 15.8238C6.55502 16.1483 6.66498 16.4205 6.88489 16.6404C7.1048 16.8603 7.37664 16.9699 7.7004 16.9691C8.02493 16.9691 8.29714 16.8592 8.51706 16.6393C8.73697 16.4194 8.84654 16.1475 8.84578 15.8238V7.80611C8.84578 7.48159 8.73582 7.20937 8.51591 6.98946C8.296 6.76955 8.02416 6.65997 7.7004 6.66074C7.37588 6.66074 7.10366 6.77069 6.88375 6.9906C6.66383 7.21052 6.55426 7.48235 6.55502 7.80611V15.8238ZM11.1365 15.8238C11.1365 16.1483 11.2465 16.4205 11.4664 16.6404C11.6863 16.8603 11.9582 16.9699 12.2819 16.9691C12.6064 16.9691 12.8787 16.8592 13.0986 16.6393C13.3185 16.4194 13.4281 16.1475 13.4273 15.8238V7.80611C13.4273 7.48159 13.3173 7.20937 13.0974 6.98946C12.8775 6.76955 12.6057 6.65997 12.2819 6.66074C11.9574 6.66074 11.6852 6.77069 11.4653 6.9906C11.2453 7.21052 11.1358 7.48235 11.1365 7.80611V15.8238Z" fill="white"/>
</svg>
