<svg width="43" height="43" viewBox="0 0 43 43" fill="none" xmlns="http://www.w3.org/2000/svg">
<circle cx="21.5" cy="21.5" r="21.5" fill="#2558B8"/>
<path d="M25.35 30.3C25.0167 30.4334 24.7083 30.3917 24.425 30.175C24.1417 29.9584 24 29.6584 24 29.275C24 29.0917 24.0543 28.9294 24.163 28.788C24.2717 28.6467 24.409 28.5424 24.575 28.475C25.9083 27.9417 26.9793 27.0917 27.788 25.925C28.5967 24.7584 29.0007 23.4417 29 21.975C29 20.5084 28.5957 19.1917 27.787 18.025C26.9783 16.8584 25.9077 16.0084 24.575 15.475C24.3917 15.4084 24.25 15.3 24.15 15.15C24.05 15 24 14.8334 24 14.65C24 14.2834 24.1417 13.9917 24.425 13.775C24.7083 13.5584 25.0167 13.5167 25.35 13.65C27.05 14.3334 28.4167 15.425 29.45 16.925C30.4833 18.425 31 20.1084 31 21.975C31 23.8417 30.4833 25.525 29.45 27.025C28.4167 28.525 27.05 29.6167 25.35 30.3ZM14 25C13.7167 25 13.479 24.904 13.287 24.712C13.095 24.52 12.9993 24.2827 13 24V20C13 19.7167 13.096 19.479 13.288 19.287C13.48 19.095 13.7173 18.9994 14 19H17L20.3 15.7C20.6167 15.3834 20.9793 15.3124 21.388 15.487C21.7967 15.6617 22.0007 15.9744 22 16.425V27.575C22 28.025 21.7957 28.3377 21.387 28.513C20.9783 28.6884 20.616 28.6174 20.3 28.3L17 25H14ZM24 26V17.95C24.75 18.3 25.3543 18.8417 25.813 19.575C26.2717 20.3084 26.5007 21.1167 26.5 22C26.5 22.8834 26.2707 23.6834 25.812 24.4C25.3533 25.1167 24.7493 25.65 24 26Z" fill="white"/>
</svg>
