<svg width="51" height="51" viewBox="0 0 51 51" fill="none" xmlns="http://www.w3.org/2000/svg">
<circle cx="25.5" cy="25.5" r="25.5" fill="#C4C4C4"/>
<g opacity="0.5">
<mask id="mask0_362_252" style="mask-type:luminance" maskUnits="userSpaceOnUse" x="11" y="11" width="28" height="28">
<path d="M25 22.5C25.5745 22.5 26.1434 22.3868 26.6742 22.167C27.205 21.9471 27.6873 21.6248 28.0936 21.2186C28.4998 20.8123 28.8221 20.33 29.042 19.7992C29.2618 19.2684 29.375 18.6995 29.375 18.125C29.375 17.5505 29.2618 16.9816 29.042 16.4508C28.8221 15.92 28.4998 15.4377 28.0936 15.0314C27.6873 14.6252 27.205 14.3029 26.6742 14.083C26.1434 13.8632 25.5745 13.75 25 13.75C23.8397 13.75 22.7269 14.2109 21.9064 15.0314C21.0859 15.8519 20.625 16.9647 20.625 18.125C20.625 19.2853 21.0859 20.3981 21.9064 21.2186C22.7269 22.0391 23.8397 22.5 25 22.5ZM13.75 35.5V36.25H36.25V35.5C36.25 32.7 36.25 31.3 35.705 30.23C35.2256 29.2892 34.4608 28.5244 33.52 28.045C32.45 27.5 31.05 27.5 28.25 27.5H21.75C18.95 27.5 17.55 27.5 16.48 28.045C15.5392 28.5244 14.7744 29.2892 14.295 30.23C13.75 31.3 13.75 32.7 13.75 35.5Z" fill="white" stroke="white" stroke-width="4" stroke-linecap="round" stroke-linejoin="round"/>
</mask>
<g mask="url(#mask0_362_252)">
<path d="M10 10H40V40H10V10Z" fill="black"/>
</g>
</g>
</svg>
