<svg width="50" height="50" viewBox="0 0 50 50" fill="none" xmlns="http://www.w3.org/2000/svg">
<g clip-path="url(#clip0_140_712)">
<path fill-rule="evenodd" clip-rule="evenodd" d="M28.9791 38.1042C29.6823 38.4275 30.4044 38.7079 31.1416 38.9437C34.6791 40.0604 37.0083 39.5062 38.2583 38.2562C39.5083 37.0083 40.0624 34.6771 38.9458 31.1417C38.7098 30.4029 38.4287 29.6793 38.1041 28.975C36.7947 30.6915 35.3698 32.3168 33.8395 33.8396C32.3175 35.3694 30.6929 36.7935 28.977 38.1021L28.9791 38.1042ZM24.9999 35.8333C27.1145 34.3737 29.0877 32.7193 30.8937 30.8917C32.7198 29.0862 34.3728 27.1137 35.8312 25C34.373 22.8856 32.7199 20.9124 30.8937 19.1062C29.0875 17.2801 27.1143 15.6271 24.9999 14.1687C22.8863 15.6271 20.9138 17.2802 19.1083 19.1062C17.2806 20.9122 15.6262 22.8854 14.1666 25C15.625 27.1136 17.2781 29.0861 19.1041 30.8917C21.1104 32.8979 23.0958 34.5375 24.9999 35.8333ZM11.8958 28.9771C13.1249 30.5979 14.5499 32.2271 16.1624 33.8396C17.6838 35.3693 19.3077 36.7934 21.0228 38.1021C20.3192 38.4266 19.5963 38.7077 18.8583 38.9437C15.3229 40.0604 12.9916 39.5062 11.7416 38.2583C10.4916 37.0083 9.93952 34.6792 11.0562 31.1417C11.2749 30.4479 11.5562 29.725 11.8979 28.975L11.8958 28.9771ZM9.26035 25C8.31035 26.6729 7.58327 28.3125 7.08535 29.8854C5.7416 34.1417 5.98118 38.3854 8.79785 41.2042C11.6166 44.0229 15.8604 44.2625 20.1166 42.9167C21.816 42.3645 23.4527 41.6355 24.9999 40.7417C26.6728 41.6917 28.3124 42.4187 29.8853 42.9167C34.1437 44.2604 38.3853 44.0208 41.2041 41.2042C44.0229 38.3854 44.2624 34.1417 42.9166 29.8854C42.3645 28.1853 41.6355 26.5479 40.7416 25C41.6916 23.3271 42.4187 21.6875 42.9166 20.1146C44.2624 15.8583 44.0229 11.6146 41.2041 8.79583C38.3874 5.97708 34.1416 5.73749 29.8853 7.08333C28.1853 7.63538 26.5478 8.36438 24.9999 9.25833C23.4521 8.36438 21.8146 7.63538 20.1145 7.08333C15.8583 5.73749 11.6145 5.97708 8.79577 8.79583C5.97702 11.6146 5.73952 15.8583 7.08327 20.1146C7.63532 21.8147 8.36432 23.4521 9.25827 25H9.26035ZM11.8999 21.0229C13.1291 19.4021 14.552 17.7729 16.1645 16.1604C17.6859 14.6307 19.3098 13.2066 21.0249 11.8979C20.3213 11.5734 19.5984 11.2924 18.8604 11.0562C15.3249 9.93958 12.9937 10.4937 11.7437 11.7417C10.4937 12.9917 9.9416 15.3208 11.0583 18.8583C11.277 19.5521 11.5583 20.275 11.8999 21.025V21.0229ZM28.9791 11.8979C29.6828 11.5734 30.4057 11.2924 31.1437 11.0562C34.6812 9.93958 37.0103 10.4937 38.2603 11.7417C39.5103 12.9917 40.0645 15.3208 38.9478 18.8583C38.727 19.5521 38.4478 20.275 38.1062 21.025C36.797 19.3083 35.3722 17.683 33.8416 16.1604C32.3196 14.6306 30.695 13.2065 28.9791 11.8979ZM28.1249 25C28.1248 25.4104 28.0438 25.8167 27.8867 26.1958C27.7295 26.5749 27.4992 26.9193 27.2089 27.2094C26.9186 27.4995 26.5741 27.7296 26.1949 27.8865C25.8157 28.0434 25.4093 28.1241 24.9989 28.124C24.5885 28.1238 24.1822 28.0429 23.8031 27.8857C23.424 27.7285 23.0796 27.4982 22.7895 27.2079C22.4994 26.9176 22.2693 26.5731 22.1124 26.1939C21.9555 25.8147 21.8748 25.4083 21.8749 24.9979C21.8749 24.1691 22.2042 23.3743 22.7902 22.7882C23.3763 22.2022 24.1711 21.8729 24.9999 21.8729C25.8287 21.8729 26.6236 22.2022 27.2096 22.7882C27.7957 23.3743 28.1249 24.1691 28.1249 24.9979V25Z" fill="white"/>
</g>
<defs>
<clipPath id="clip0_140_712">
<rect width="50" height="50" fill="white"/>
</clipPath>
</defs>
</svg>
