<svg width="22" height="38" viewBox="0 0 22 38" fill="none" xmlns="http://www.w3.org/2000/svg">
<path d="M11.5834 16.7083C6.85425 15.4792 5.33342 14.2083 5.33342 12.2292C5.33342 9.95833 7.43758 8.375 10.9584 8.375C13.9167 8.375 15.3959 9.5 15.9376 11.2917C16.1876 12.125 16.8751 12.75 17.7501 12.75H18.3751C19.7501 12.75 20.7292 11.3958 20.2501 10.1042C19.3751 7.64583 17.3334 5.60417 14.0834 4.8125V3.375C14.0834 1.64583 12.6876 0.25 10.9584 0.25C9.22925 0.25 7.83342 1.64583 7.83342 3.375V4.75C3.79175 5.625 0.541748 8.25 0.541748 12.2708C0.541748 17.0833 4.52091 19.4792 10.3334 20.875C15.5417 22.125 16.5834 23.9583 16.5834 25.8958C16.5834 27.3333 15.5626 29.625 10.9584 29.625C7.52092 29.625 5.75008 28.3958 5.06258 26.6458C4.75008 25.8333 4.04175 25.25 3.18758 25.25H2.60425C1.20841 25.25 0.229248 26.6667 0.750081 27.9583C1.93758 30.8542 4.70842 32.5625 7.83342 33.2292V34.625C7.83342 36.3542 9.22925 37.75 10.9584 37.75C12.6876 37.75 14.0834 36.3542 14.0834 34.625V33.2708C18.1459 32.5 21.3751 30.1458 21.3751 25.875C21.3751 19.9583 16.3126 17.9375 11.5834 16.7083Z" fill="white"/>
</svg>
