<svg width="38" height="38" viewBox="0 0 38 38" fill="none" xmlns="http://www.w3.org/2000/svg">
<path fill-rule="evenodd" clip-rule="evenodd" d="M22.9791 32.1043C23.6823 32.4276 24.4044 32.708 25.1416 32.9439C28.6791 34.0605 31.0083 33.5064 32.2583 32.2564C33.5083 31.0085 34.0624 28.6772 32.9458 25.1418C32.7098 24.403 32.4287 23.6794 32.1041 22.9751C30.7947 24.6916 29.3698 26.3169 27.8395 27.8397C26.3175 29.3695 24.6929 30.7936 22.977 32.1022L22.9791 32.1043ZM18.9999 29.8335C21.1145 28.3739 23.0877 26.7194 24.8937 24.8918C26.7198 23.0863 28.3728 21.1138 29.8312 19.0001C28.373 16.8857 26.7199 14.9125 24.8937 13.1064C23.0875 11.2802 21.1143 9.62717 18.9999 8.16887C16.8863 9.62724 14.9138 11.2803 13.1083 13.1064C11.2806 14.9123 9.62619 16.8855 8.1666 19.0001C9.62501 21.1138 11.2781 23.0862 13.1041 24.8918C15.1104 26.898 17.0958 28.5376 18.9999 29.8335ZM5.89577 22.9772C7.12493 24.598 8.54993 26.2272 10.1624 27.8397C11.6838 29.3694 13.3077 30.7935 15.0228 32.1022C14.3192 32.4267 13.5963 32.7078 12.8583 32.9439C9.32285 34.0605 6.9916 33.5064 5.7416 32.2585C4.4916 31.0085 3.93952 28.6793 5.05618 25.1418C5.27493 24.448 5.55618 23.7251 5.89785 22.9751L5.89577 22.9772ZM3.26035 19.0001C2.31035 20.673 1.58327 22.3126 1.08535 23.8855C-0.258399 28.1418 -0.018816 32.3855 2.79785 35.2043C5.6166 38.023 9.86035 38.2626 14.1166 36.9168C15.816 36.3646 17.4527 35.6356 18.9999 34.7418C20.6728 35.6918 22.3124 36.4189 23.8853 36.9168C28.1437 38.2605 32.3853 38.021 35.2041 35.2043C38.0229 32.3855 38.2624 28.1418 36.9166 23.8855C36.3645 22.1855 35.6355 20.548 34.7416 19.0001C35.6916 17.3272 36.4187 15.6876 36.9166 14.1147C38.2624 9.85845 38.0229 5.6147 35.2041 2.79595C32.3874 -0.0228016 28.1416 -0.262385 23.8853 1.08345C22.1853 1.6355 20.5478 2.3645 18.9999 3.25845C17.4521 2.3645 15.8146 1.6355 14.1145 1.08345C9.85827 -0.262385 5.61452 -0.0228016 2.79577 2.79595C-0.0229826 5.6147 -0.260482 9.85845 1.08327 14.1147C1.63532 15.8148 2.36432 17.4522 3.25827 19.0001H3.26035ZM5.89993 15.023C7.1291 13.4022 8.55202 11.773 10.1645 10.1605C11.6859 8.63084 13.3098 7.2067 15.0249 5.89803C14.3213 5.57357 13.5984 5.29249 12.8604 5.05637C9.32493 3.9397 6.99368 4.49387 5.74368 5.74178C4.49368 6.99178 3.9416 9.32095 5.05827 12.8584C5.27702 13.5522 5.55827 14.2751 5.89993 15.0251V15.023ZM22.9791 5.89803C23.6828 5.57356 24.4057 5.29248 25.1437 5.05637C28.6812 3.9397 31.0103 4.49387 32.2603 5.74178C33.5103 6.99178 34.0645 9.32095 32.9478 12.8584C32.727 13.5522 32.4478 14.2751 32.1062 15.0251C30.797 13.3084 29.3722 11.6831 27.8416 10.1605C26.3196 8.63076 24.695 7.20662 22.9791 5.89803ZM22.1249 19.0001C22.1248 19.4105 22.0438 19.8168 21.8867 20.1959C21.7295 20.575 21.4992 20.9194 21.2089 21.2095C20.9186 21.4996 20.5741 21.7297 20.1949 21.8866C19.8157 22.0435 19.4093 22.1242 18.9989 22.1241C18.5885 22.1239 18.1822 22.043 17.8031 21.8858C17.424 21.7286 17.0796 21.4983 16.7895 21.208C16.4994 20.9178 16.2693 20.5732 16.1124 20.194C15.9555 19.8148 15.8748 19.4084 15.8749 18.998C15.8749 18.1692 16.2042 17.3744 16.7902 16.7883C17.3763 16.2023 18.1711 15.873 18.9999 15.873C19.8287 15.873 20.6236 16.2023 21.2096 16.7883C21.7957 17.3744 22.1249 18.1692 22.1249 18.998V19.0001Z" fill="white"/>
</svg>
