<svg width="42" height="42" viewBox="0 0 42 42" fill="none" xmlns="http://www.w3.org/2000/svg">
<path d="M21 0.6875C26.3872 0.6875 31.5538 2.82756 35.3631 6.63689C39.1724 10.4462 41.3125 15.6128 41.3125 21C41.3125 26.3872 39.1724 31.5538 35.3631 35.3631C31.5538 39.1724 26.3872 41.3125 21 41.3125C15.6128 41.3125 10.4462 39.1724 6.63689 35.3631C2.82756 31.5538 0.6875 26.3872 0.6875 21C0.6875 15.6128 2.82756 10.4462 6.63689 6.63689C10.4462 2.82756 15.6128 0.6875 21 0.6875ZM17.3625 4.19687L21 6.625L24.6375 4.2C22.2401 3.68302 19.7599 3.68302 17.3625 4.2V4.19687ZM13.6344 5.46563C11.3543 6.5507 9.3402 8.12313 7.73438 10.0719L9.75625 16.6469L12.9 17.6938L19.4375 12.725V9.3375L13.6344 5.46563ZM5.525 13.5156C4.66112 15.2961 4.11338 17.2132 3.90625 19.1813L6.67188 17.2469L5.525 13.5156ZM3.925 22.9844C4.2375 25.6875 5.175 28.2031 6.59062 30.375H12.5406L14.525 28.3906L11.9531 20.6719L8.75312 19.6062L3.925 22.9812V22.9844ZM9.20625 33.5C10.4656 34.6937 11.9094 35.6969 13.4875 36.4625L12.1781 33.5H9.20938H9.20625ZM17.5188 37.8344C19.8155 38.3071 22.1845 38.3071 24.4813 37.8344L26.95 32.2844L25.0406 30.375H16.9594L15.0531 32.2812L17.5188 37.8344ZM28.5094 36.4625C30.0805 35.6982 31.5262 34.6992 32.7969 33.5H29.8281L28.5094 36.4625ZM35.4062 30.375C36.7812 28.2687 37.7063 25.8438 38.0438 23.2344L33.2188 19.6156L30.0469 20.6719L27.475 28.3906L29.4594 30.375H35.4062ZM38.1125 19.3813C37.9222 17.3265 37.3611 15.3233 36.4562 13.4688L35.3094 17.2812L38.1125 19.3813ZM34.225 10.0219C32.6256 8.09594 30.6262 6.54121 28.3656 5.46563L22.5625 9.3375V12.725L29.1 17.6938L32.2375 16.65L34.225 10.0219ZM15.025 20L17.4375 27.25H24.5625L26.975 20.0031L21 15.4625L15.025 20.0063V20Z" fill="white"/>
</svg>
