<svg width="42" height="42" viewBox="0 0 42 42" fill="none" xmlns="http://www.w3.org/2000/svg">
<path d="M16.8333 6.41667L21 2.25M12.6667 29.3333L29.3333 12.6667M21 39.75L25.1667 35.5833M30.375 35.5833C31.7563 35.5833 33.0811 35.0346 34.0578 34.0578C35.0346 33.0811 35.5833 31.7563 35.5833 30.375C35.5833 28.9937 35.0346 27.6689 34.0578 26.6922C33.0811 25.7154 31.7563 25.1667 30.375 25.1667C28.9937 25.1667 27.6689 25.7154 26.6922 26.6922C25.7154 27.6689 25.1667 28.9937 25.1667 30.375C25.1667 31.7563 25.7154 33.0811 26.6922 34.0578C27.6689 35.0346 28.9937 35.5833 30.375 35.5833ZM11.625 16.8333C13.0063 16.8333 14.3311 16.2846 15.3078 15.3078C16.2846 14.3311 16.8333 13.0063 16.8333 11.625C16.8333 10.2437 16.2846 8.9189 15.3078 7.94215C14.3311 6.9654 13.0063 6.41667 11.625 6.41667C10.2437 6.41667 8.9189 6.9654 7.94215 7.94215C6.9654 8.9189 6.41667 10.2437 6.41667 11.625C6.41667 13.0063 6.9654 14.3311 7.94215 15.3078C8.9189 16.2846 10.2437 16.8333 11.625 16.8333ZM7.45833 39.75C8.83967 39.75 10.1644 39.2013 11.1412 38.2245C12.1179 37.2478 12.6667 35.923 12.6667 34.5417C12.6667 33.1603 12.1179 31.8356 11.1412 30.8588C10.1644 29.8821 8.83967 29.3333 7.45833 29.3333C6.077 29.3333 4.75224 29.8821 3.77549 30.8588C2.79873 31.8356 2.25 33.1603 2.25 34.5417C2.25 35.923 2.79873 37.2478 3.77549 38.2245C4.75224 39.2013 6.077 39.75 7.45833 39.75ZM34.5417 12.6667C35.923 12.6667 37.2478 12.1179 38.2245 11.1412C39.2013 10.1644 39.75 8.83967 39.75 7.45833C39.75 6.077 39.2013 4.75224 38.2245 3.77549C37.2478 2.79873 35.923 2.25 34.5417 2.25C33.1603 2.25 31.8356 2.79873 30.8588 3.77549C29.8821 4.75224 29.3333 6.077 29.3333 7.45833C29.3333 8.83967 29.8821 10.1644 30.8588 11.1412C31.8356 12.1179 33.1603 12.6667 34.5417 12.6667Z" stroke="white" stroke-width="3" stroke-linecap="round" stroke-linejoin="round"/>
</svg>
